<mxfile host="app.diagrams.net" agent="Mozilla/5.0 (Windows NT 10.0; Win64; x64) AppleWebKit/537.36 (KHTML, like Gecko) Chrome/128.0.0.0 Safari/537.36" version="24.7.8">
  <diagram name="Página-1" id="DP-q_eUPE_vVZAbxloUf">
    <mxGraphModel dx="1485" dy="414" grid="1" gridSize="10" guides="1" tooltips="1" connect="1" arrows="1" fold="1" page="1" pageScale="1" pageWidth="827" pageHeight="1169" math="0" shadow="0">
      <root>
        <mxCell id="0" />
        <mxCell id="1" parent="0" />
        <mxCell id="r4c-kVHmLbGqEf3ZUMeT-10" style="edgeStyle=orthogonalEdgeStyle;rounded=0;orthogonalLoop=1;jettySize=auto;html=1;entryX=0;entryY=0.5;entryDx=0;entryDy=0;endArrow=none;endFill=0;" parent="1" source="r4c-kVHmLbGqEf3ZUMeT-1" target="r4c-kVHmLbGqEf3ZUMeT-3" edge="1">
          <mxGeometry relative="1" as="geometry" />
        </mxCell>
        <mxCell id="r4c-kVHmLbGqEf3ZUMeT-1" value="Cliente" style="whiteSpace=wrap;html=1;aspect=fixed;" parent="1" vertex="1">
          <mxGeometry x="80" y="130" width="130" height="130" as="geometry" />
        </mxCell>
        <mxCell id="r4c-kVHmLbGqEf3ZUMeT-11" style="edgeStyle=orthogonalEdgeStyle;rounded=0;orthogonalLoop=1;jettySize=auto;html=1;exitX=1;exitY=0.5;exitDx=0;exitDy=0;entryX=0;entryY=0.5;entryDx=0;entryDy=0;endArrow=none;endFill=0;" parent="1" source="r4c-kVHmLbGqEf3ZUMeT-3" target="r4c-kVHmLbGqEf3ZUMeT-4" edge="1">
          <mxGeometry relative="1" as="geometry" />
        </mxCell>
        <mxCell id="r4c-kVHmLbGqEf3ZUMeT-3" value="Compras" style="rhombus;whiteSpace=wrap;html=1;" parent="1" vertex="1">
          <mxGeometry x="320" y="155" width="80" height="80" as="geometry" />
        </mxCell>
        <mxCell id="r4c-kVHmLbGqEf3ZUMeT-4" value="Produtos" style="whiteSpace=wrap;html=1;aspect=fixed;" parent="1" vertex="1">
          <mxGeometry x="510" y="130" width="130" height="130" as="geometry" />
        </mxCell>
        <mxCell id="r4c-kVHmLbGqEf3ZUMeT-5" value="Cliente" style="swimlane;fontStyle=0;childLayout=stackLayout;horizontal=1;startSize=30;horizontalStack=0;resizeParent=1;resizeParentMax=0;resizeLast=0;collapsible=1;marginBottom=0;whiteSpace=wrap;html=1;" parent="1" vertex="1">
          <mxGeometry x="-270" y="320" width="350" height="150" as="geometry" />
        </mxCell>
        <mxCell id="r4c-kVHmLbGqEf3ZUMeT-6" value="Id (Cliente) :&amp;nbsp; INT PRIMARY KEY AUTO_INCREMENT" style="text;strokeColor=none;fillColor=none;align=left;verticalAlign=middle;spacingLeft=4;spacingRight=4;overflow=hidden;points=[[0,0.5],[1,0.5]];portConstraint=eastwest;rotatable=0;whiteSpace=wrap;html=1;" parent="r4c-kVHmLbGqEf3ZUMeT-5" vertex="1">
          <mxGeometry y="30" width="350" height="30" as="geometry" />
        </mxCell>
        <mxCell id="r4c-kVHmLbGqEf3ZUMeT-7" value="Nome: VARCHAR (100)" style="text;strokeColor=none;fillColor=none;align=left;verticalAlign=middle;spacingLeft=4;spacingRight=4;overflow=hidden;points=[[0,0.5],[1,0.5]];portConstraint=eastwest;rotatable=0;whiteSpace=wrap;html=1;" parent="r4c-kVHmLbGqEf3ZUMeT-5" vertex="1">
          <mxGeometry y="60" width="350" height="30" as="geometry" />
        </mxCell>
        <mxCell id="r4c-kVHmLbGqEf3ZUMeT-8" value="Telefone: CHAR (11)" style="text;strokeColor=none;fillColor=none;align=left;verticalAlign=middle;spacingLeft=4;spacingRight=4;overflow=hidden;points=[[0,0.5],[1,0.5]];portConstraint=eastwest;rotatable=0;whiteSpace=wrap;html=1;" parent="r4c-kVHmLbGqEf3ZUMeT-5" vertex="1">
          <mxGeometry y="90" width="350" height="30" as="geometry" />
        </mxCell>
        <mxCell id="r4c-kVHmLbGqEf3ZUMeT-9" value="CPF: CHAR (11)" style="text;strokeColor=none;fillColor=none;align=left;verticalAlign=middle;spacingLeft=4;spacingRight=4;overflow=hidden;points=[[0,0.5],[1,0.5]];portConstraint=eastwest;rotatable=0;whiteSpace=wrap;html=1;" parent="r4c-kVHmLbGqEf3ZUMeT-5" vertex="1">
          <mxGeometry y="120" width="350" height="30" as="geometry" />
        </mxCell>
        <mxCell id="r4c-kVHmLbGqEf3ZUMeT-12" value="Compras" style="swimlane;fontStyle=0;childLayout=stackLayout;horizontal=1;startSize=30;horizontalStack=0;resizeParent=1;resizeParentMax=0;resizeLast=0;collapsible=1;marginBottom=0;whiteSpace=wrap;html=1;" parent="1" vertex="1">
          <mxGeometry x="140" y="320" width="350" height="180" as="geometry" />
        </mxCell>
        <mxCell id="r4c-kVHmLbGqEf3ZUMeT-13" value="Id (Compras) :&amp;nbsp;&amp;nbsp;INT NOT NULL PRIMARY KEY AUTO_INCREMENT" style="text;strokeColor=none;fillColor=none;align=left;verticalAlign=middle;spacingLeft=4;spacingRight=4;overflow=hidden;points=[[0,0.5],[1,0.5]];portConstraint=eastwest;rotatable=0;whiteSpace=wrap;html=1;" parent="r4c-kVHmLbGqEf3ZUMeT-12" vertex="1">
          <mxGeometry y="30" width="350" height="30" as="geometry" />
        </mxCell>
        <mxCell id="r4c-kVHmLbGqEf3ZUMeT-15" value="Qntd: INT NOT NULL DEFAULT 1&amp;nbsp;" style="text;strokeColor=none;fillColor=none;align=left;verticalAlign=middle;spacingLeft=4;spacingRight=4;overflow=hidden;points=[[0,0.5],[1,0.5]];portConstraint=eastwest;rotatable=0;whiteSpace=wrap;html=1;" parent="r4c-kVHmLbGqEf3ZUMeT-12" vertex="1">
          <mxGeometry y="60" width="350" height="30" as="geometry" />
        </mxCell>
        <mxCell id="r4c-kVHmLbGqEf3ZUMeT-28" value="Total: DECIMAL (10, 2) NOT NULL" style="text;strokeColor=none;fillColor=none;align=left;verticalAlign=middle;spacingLeft=4;spacingRight=4;overflow=hidden;points=[[0,0.5],[1,0.5]];portConstraint=eastwest;rotatable=0;whiteSpace=wrap;html=1;" parent="r4c-kVHmLbGqEf3ZUMeT-12" vertex="1">
          <mxGeometry y="90" width="350" height="30" as="geometry" />
        </mxCell>
        <mxCell id="r4c-kVHmLbGqEf3ZUMeT-21" value="Id (Produto) : INT NOT NULL FOREIGEIN KEY" style="text;strokeColor=none;fillColor=none;align=left;verticalAlign=middle;spacingLeft=4;spacingRight=4;overflow=hidden;points=[[0,0.5],[1,0.5]];portConstraint=eastwest;rotatable=0;whiteSpace=wrap;html=1;" parent="r4c-kVHmLbGqEf3ZUMeT-12" vertex="1">
          <mxGeometry y="120" width="350" height="30" as="geometry" />
        </mxCell>
        <mxCell id="r4c-kVHmLbGqEf3ZUMeT-14" value="Id (Cliente) : INT NOT NULL FOREIGEIN KEY" style="text;strokeColor=none;fillColor=none;align=left;verticalAlign=middle;spacingLeft=4;spacingRight=4;overflow=hidden;points=[[0,0.5],[1,0.5]];portConstraint=eastwest;rotatable=0;whiteSpace=wrap;html=1;" parent="r4c-kVHmLbGqEf3ZUMeT-12" vertex="1">
          <mxGeometry y="150" width="350" height="30" as="geometry" />
        </mxCell>
        <mxCell id="r4c-kVHmLbGqEf3ZUMeT-17" value="1" style="text;html=1;align=center;verticalAlign=middle;resizable=0;points=[];autosize=1;strokeColor=none;fillColor=none;" parent="1" vertex="1">
          <mxGeometry x="220" y="130" width="30" height="30" as="geometry" />
        </mxCell>
        <mxCell id="r4c-kVHmLbGqEf3ZUMeT-18" value="n" style="text;html=1;align=center;verticalAlign=middle;resizable=0;points=[];autosize=1;strokeColor=none;fillColor=none;" parent="1" vertex="1">
          <mxGeometry x="325" y="128" width="30" height="30" as="geometry" />
        </mxCell>
        <mxCell id="r4c-kVHmLbGqEf3ZUMeT-19" value="n" style="text;html=1;align=center;verticalAlign=middle;resizable=0;points=[];autosize=1;strokeColor=none;fillColor=none;" parent="1" vertex="1">
          <mxGeometry x="370" y="128" width="30" height="30" as="geometry" />
        </mxCell>
        <mxCell id="r4c-kVHmLbGqEf3ZUMeT-20" value="1" style="text;html=1;align=center;verticalAlign=middle;resizable=0;points=[];autosize=1;strokeColor=none;fillColor=none;" parent="1" vertex="1">
          <mxGeometry x="485" y="125" width="30" height="30" as="geometry" />
        </mxCell>
        <mxCell id="r4c-kVHmLbGqEf3ZUMeT-22" value="Produto" style="swimlane;fontStyle=0;childLayout=stackLayout;horizontal=1;startSize=30;horizontalStack=0;resizeParent=1;resizeParentMax=0;resizeLast=0;collapsible=1;marginBottom=0;whiteSpace=wrap;html=1;" parent="1" vertex="1">
          <mxGeometry x="510" y="320" width="350" height="150" as="geometry" />
        </mxCell>
        <mxCell id="r4c-kVHmLbGqEf3ZUMeT-24" value="Id (Produto) :&amp;nbsp;&amp;nbsp;INT NOT NULL PRIMARY KEY AUTO_INCREMENT" style="text;strokeColor=none;fillColor=none;align=left;verticalAlign=middle;spacingLeft=4;spacingRight=4;overflow=hidden;points=[[0,0.5],[1,0.5]];portConstraint=eastwest;rotatable=0;whiteSpace=wrap;html=1;" parent="r4c-kVHmLbGqEf3ZUMeT-22" vertex="1">
          <mxGeometry y="30" width="350" height="30" as="geometry" />
        </mxCell>
        <mxCell id="r4c-kVHmLbGqEf3ZUMeT-25" value="Nome: VARCHAR (100)" style="text;strokeColor=none;fillColor=none;align=left;verticalAlign=middle;spacingLeft=4;spacingRight=4;overflow=hidden;points=[[0,0.5],[1,0.5]];portConstraint=eastwest;rotatable=0;whiteSpace=wrap;html=1;" parent="r4c-kVHmLbGqEf3ZUMeT-22" vertex="1">
          <mxGeometry y="60" width="350" height="30" as="geometry" />
        </mxCell>
        <mxCell id="r4c-kVHmLbGqEf3ZUMeT-26" value="Estoque: INT NOT NULL DEFAULT&amp;nbsp;" style="text;strokeColor=none;fillColor=none;align=left;verticalAlign=middle;spacingLeft=4;spacingRight=4;overflow=hidden;points=[[0,0.5],[1,0.5]];portConstraint=eastwest;rotatable=0;whiteSpace=wrap;html=1;" parent="r4c-kVHmLbGqEf3ZUMeT-22" vertex="1">
          <mxGeometry y="90" width="350" height="30" as="geometry" />
        </mxCell>
        <mxCell id="r4c-kVHmLbGqEf3ZUMeT-27" value="Preço: DECIMAL (10, 2) NOT NULL" style="text;strokeColor=none;fillColor=none;align=left;verticalAlign=middle;spacingLeft=4;spacingRight=4;overflow=hidden;points=[[0,0.5],[1,0.5]];portConstraint=eastwest;rotatable=0;whiteSpace=wrap;html=1;" parent="r4c-kVHmLbGqEf3ZUMeT-22" vertex="1">
          <mxGeometry y="120" width="350" height="30" as="geometry" />
        </mxCell>
      </root>
    </mxGraphModel>
  </diagram>
</mxfile>
